<mxfile host="app.diagrams.net" modified="2021-12-07T02:17:43.965Z" agent="5.0 (X11; Linux x86_64) AppleWebKit/537.36 (KHTML, like Gecko) Chrome/94.0.4606.81 Safari/537.36" etag="zH9PEcUfA1Fag5w7R4Kc" version="15.8.3" type="github">
  <diagram id="WyzBlZ7lUFtpEgTt48l5" name="Page-1">
    <mxGraphModel dx="1425" dy="804" grid="0" gridSize="10" guides="1" tooltips="1" connect="1" arrows="1" fold="1" page="1" pageScale="1" pageWidth="827" pageHeight="1169" math="0" shadow="0">
      <root>
        <mxCell id="0" />
        <mxCell id="1" parent="0" />
        <mxCell id="SnFDTVV-R00YEehV2cPC-3" value="" style="edgeStyle=orthogonalEdgeStyle;rounded=0;orthogonalLoop=1;jettySize=auto;html=1;" parent="1" source="SnFDTVV-R00YEehV2cPC-1" target="SnFDTVV-R00YEehV2cPC-2" edge="1">
          <mxGeometry relative="1" as="geometry" />
        </mxCell>
        <mxCell id="SnFDTVV-R00YEehV2cPC-1" value="输入" style="rounded=1;whiteSpace=wrap;html=1;" parent="1" vertex="1">
          <mxGeometry x="360" y="160" width="64" height="30" as="geometry" />
        </mxCell>
        <mxCell id="SnFDTVV-R00YEehV2cPC-5" value="" style="edgeStyle=orthogonalEdgeStyle;rounded=0;orthogonalLoop=1;jettySize=auto;html=1;" parent="1" source="SnFDTVV-R00YEehV2cPC-2" target="SnFDTVV-R00YEehV2cPC-4" edge="1">
          <mxGeometry relative="1" as="geometry" />
        </mxCell>
        <mxCell id="SnFDTVV-R00YEehV2cPC-10" style="edgeStyle=orthogonalEdgeStyle;rounded=0;orthogonalLoop=1;jettySize=auto;html=1;entryX=1;entryY=0.5;entryDx=0;entryDy=0;" parent="1" source="SnFDTVV-R00YEehV2cPC-2" target="SnFDTVV-R00YEehV2cPC-8" edge="1">
          <mxGeometry relative="1" as="geometry">
            <mxPoint x="440" y="590" as="targetPoint" />
            <Array as="points">
              <mxPoint x="590" y="250" />
              <mxPoint x="590" y="585" />
              <mxPoint x="470" y="585" />
            </Array>
          </mxGeometry>
        </mxCell>
        <mxCell id="SnFDTVV-R00YEehV2cPC-2" value="存在缺失值？" style="rhombus;whiteSpace=wrap;html=1;rounded=1;" parent="1" vertex="1">
          <mxGeometry x="327" y="220" width="130" height="60" as="geometry" />
        </mxCell>
        <mxCell id="SnFDTVV-R00YEehV2cPC-12" value="" style="edgeStyle=orthogonalEdgeStyle;rounded=0;orthogonalLoop=1;jettySize=auto;html=1;" parent="1" source="SnFDTVV-R00YEehV2cPC-4" target="SnFDTVV-R00YEehV2cPC-11" edge="1">
          <mxGeometry relative="1" as="geometry" />
        </mxCell>
        <mxCell id="SnFDTVV-R00YEehV2cPC-21" value="" style="edgeStyle=orthogonalEdgeStyle;rounded=0;orthogonalLoop=1;jettySize=auto;html=1;" parent="1" source="SnFDTVV-R00YEehV2cPC-4" target="SnFDTVV-R00YEehV2cPC-17" edge="1">
          <mxGeometry relative="1" as="geometry" />
        </mxCell>
        <mxCell id="SnFDTVV-R00YEehV2cPC-4" value="其他机组有值？" style="rhombus;whiteSpace=wrap;html=1;rounded=1;" parent="1" vertex="1">
          <mxGeometry x="327" y="320" width="130" height="60" as="geometry" />
        </mxCell>
        <mxCell id="SnFDTVV-R00YEehV2cPC-6" value="是" style="text;html=1;strokeColor=none;fillColor=none;align=center;verticalAlign=middle;whiteSpace=wrap;rounded=0;" parent="1" vertex="1">
          <mxGeometry x="350" y="280" width="60" height="30" as="geometry" />
        </mxCell>
        <mxCell id="SnFDTVV-R00YEehV2cPC-7" value="否" style="text;html=1;strokeColor=none;fillColor=none;align=center;verticalAlign=middle;whiteSpace=wrap;rounded=0;" parent="1" vertex="1">
          <mxGeometry x="440" y="230" width="60" height="30" as="geometry" />
        </mxCell>
        <mxCell id="SnFDTVV-R00YEehV2cPC-8" value="结束" style="rounded=0;whiteSpace=wrap;html=1;" parent="1" vertex="1">
          <mxGeometry x="343.5" y="572" width="97" height="25" as="geometry" />
        </mxCell>
        <mxCell id="SnFDTVV-R00YEehV2cPC-14" style="edgeStyle=orthogonalEdgeStyle;rounded=0;orthogonalLoop=1;jettySize=auto;html=1;" parent="1" source="SnFDTVV-R00YEehV2cPC-11" edge="1">
          <mxGeometry relative="1" as="geometry">
            <mxPoint x="344" y="583" as="targetPoint" />
            <Array as="points">
              <mxPoint x="90" y="350" />
              <mxPoint x="90" y="583" />
            </Array>
          </mxGeometry>
        </mxCell>
        <mxCell id="SnFDTVV-R00YEehV2cPC-11" value="填其他机组中位数" style="shape=parallelogram;perimeter=parallelogramPerimeter;whiteSpace=wrap;html=1;fixedSize=1;rounded=1;" parent="1" vertex="1">
          <mxGeometry x="150" y="330" width="130" height="40" as="geometry" />
        </mxCell>
        <mxCell id="SnFDTVV-R00YEehV2cPC-13" value="是" style="text;html=1;strokeColor=none;fillColor=none;align=center;verticalAlign=middle;whiteSpace=wrap;rounded=0;" parent="1" vertex="1">
          <mxGeometry x="280" y="330" width="60" height="30" as="geometry" />
        </mxCell>
        <mxCell id="SnFDTVV-R00YEehV2cPC-19" value="" style="edgeStyle=orthogonalEdgeStyle;rounded=0;orthogonalLoop=1;jettySize=auto;html=1;" parent="1" source="SnFDTVV-R00YEehV2cPC-17" target="SnFDTVV-R00YEehV2cPC-18" edge="1">
          <mxGeometry relative="1" as="geometry" />
        </mxCell>
        <mxCell id="SnFDTVV-R00YEehV2cPC-25" value="" style="edgeStyle=orthogonalEdgeStyle;rounded=0;orthogonalLoop=1;jettySize=auto;html=1;" parent="1" source="SnFDTVV-R00YEehV2cPC-17" target="SnFDTVV-R00YEehV2cPC-24" edge="1">
          <mxGeometry relative="1" as="geometry" />
        </mxCell>
        <mxCell id="SnFDTVV-R00YEehV2cPC-17" value="前后5min内有值？" style="rhombus;whiteSpace=wrap;html=1;rounded=1;" parent="1" vertex="1">
          <mxGeometry x="327" y="410" width="130" height="60" as="geometry" />
        </mxCell>
        <mxCell id="SnFDTVV-R00YEehV2cPC-18" value="填前后5min中位数" style="shape=parallelogram;perimeter=parallelogramPerimeter;whiteSpace=wrap;html=1;fixedSize=1;rounded=1;" parent="1" vertex="1">
          <mxGeometry x="150" y="420" width="130" height="40" as="geometry" />
        </mxCell>
        <mxCell id="SnFDTVV-R00YEehV2cPC-20" value="是" style="text;html=1;strokeColor=none;fillColor=none;align=center;verticalAlign=middle;whiteSpace=wrap;rounded=0;" parent="1" vertex="1">
          <mxGeometry x="280" y="420" width="60" height="30" as="geometry" />
        </mxCell>
        <mxCell id="SnFDTVV-R00YEehV2cPC-22" value="否" style="text;html=1;strokeColor=none;fillColor=none;align=center;verticalAlign=middle;whiteSpace=wrap;rounded=0;" parent="1" vertex="1">
          <mxGeometry x="377" y="380" width="60" height="30" as="geometry" />
        </mxCell>
        <mxCell id="SnFDTVV-R00YEehV2cPC-26" value="" style="edgeStyle=orthogonalEdgeStyle;rounded=0;orthogonalLoop=1;jettySize=auto;html=1;" parent="1" source="SnFDTVV-R00YEehV2cPC-24" target="SnFDTVV-R00YEehV2cPC-8" edge="1">
          <mxGeometry relative="1" as="geometry" />
        </mxCell>
        <mxCell id="SnFDTVV-R00YEehV2cPC-24" value="删除这条数据" style="shape=parallelogram;perimeter=parallelogramPerimeter;whiteSpace=wrap;html=1;fixedSize=1;rounded=1;" parent="1" vertex="1">
          <mxGeometry x="327" y="500" width="130" height="40" as="geometry" />
        </mxCell>
        <mxCell id="SnFDTVV-R00YEehV2cPC-27" value="否" style="text;html=1;strokeColor=none;fillColor=none;align=center;verticalAlign=middle;whiteSpace=wrap;rounded=0;" parent="1" vertex="1">
          <mxGeometry x="377" y="470" width="60" height="30" as="geometry" />
        </mxCell>
        <mxCell id="SnFDTVV-R00YEehV2cPC-28" value="缺失值处理流程图" style="text;html=1;strokeColor=none;fillColor=none;align=center;verticalAlign=middle;whiteSpace=wrap;rounded=0;" parent="1" vertex="1">
          <mxGeometry x="309" y="616" width="122" height="30" as="geometry" />
        </mxCell>
        <mxCell id="ufxT-27bUbr_YRMTmESy-1" value="" style="rounded=0;whiteSpace=wrap;html=1;" vertex="1" parent="1">
          <mxGeometry x="150" y="831" width="47" height="25" as="geometry" />
        </mxCell>
        <mxCell id="ufxT-27bUbr_YRMTmESy-2" value="" style="rounded=0;whiteSpace=wrap;html=1;" vertex="1" parent="1">
          <mxGeometry x="197" y="831" width="47" height="25" as="geometry" />
        </mxCell>
        <mxCell id="ufxT-27bUbr_YRMTmESy-3" value="" style="rounded=0;whiteSpace=wrap;html=1;" vertex="1" parent="1">
          <mxGeometry x="244" y="831" width="47" height="25" as="geometry" />
        </mxCell>
        <mxCell id="ufxT-27bUbr_YRMTmESy-4" value="" style="rounded=0;whiteSpace=wrap;html=1;" vertex="1" parent="1">
          <mxGeometry x="291" y="831" width="47" height="25" as="geometry" />
        </mxCell>
        <mxCell id="ufxT-27bUbr_YRMTmESy-5" value="" style="rounded=0;whiteSpace=wrap;html=1;" vertex="1" parent="1">
          <mxGeometry x="338" y="831" width="47" height="25" as="geometry" />
        </mxCell>
        <mxCell id="ufxT-27bUbr_YRMTmESy-6" value="" style="rounded=0;whiteSpace=wrap;html=1;" vertex="1" parent="1">
          <mxGeometry x="385" y="831" width="47" height="25" as="geometry" />
        </mxCell>
        <mxCell id="ufxT-27bUbr_YRMTmESy-7" value="" style="rounded=0;whiteSpace=wrap;html=1;" vertex="1" parent="1">
          <mxGeometry x="432" y="831" width="47" height="25" as="geometry" />
        </mxCell>
        <mxCell id="ufxT-27bUbr_YRMTmESy-8" value="" style="rounded=0;whiteSpace=wrap;html=1;" vertex="1" parent="1">
          <mxGeometry x="479" y="831" width="47" height="25" as="geometry" />
        </mxCell>
        <mxCell id="ufxT-27bUbr_YRMTmESy-9" value="" style="rounded=0;whiteSpace=wrap;html=1;" vertex="1" parent="1">
          <mxGeometry x="150" y="856" width="47" height="25" as="geometry" />
        </mxCell>
        <mxCell id="ufxT-27bUbr_YRMTmESy-10" value="" style="rounded=0;whiteSpace=wrap;html=1;" vertex="1" parent="1">
          <mxGeometry x="197" y="856" width="47" height="25" as="geometry" />
        </mxCell>
        <mxCell id="ufxT-27bUbr_YRMTmESy-11" value="" style="rounded=0;whiteSpace=wrap;html=1;" vertex="1" parent="1">
          <mxGeometry x="244" y="856" width="47" height="25" as="geometry" />
        </mxCell>
        <mxCell id="ufxT-27bUbr_YRMTmESy-12" value="" style="rounded=0;whiteSpace=wrap;html=1;" vertex="1" parent="1">
          <mxGeometry x="291" y="856" width="47" height="25" as="geometry" />
        </mxCell>
        <mxCell id="ufxT-27bUbr_YRMTmESy-13" value="" style="rounded=0;whiteSpace=wrap;html=1;" vertex="1" parent="1">
          <mxGeometry x="338" y="856" width="47" height="25" as="geometry" />
        </mxCell>
        <mxCell id="ufxT-27bUbr_YRMTmESy-14" value="" style="rounded=0;whiteSpace=wrap;html=1;" vertex="1" parent="1">
          <mxGeometry x="385" y="856" width="47" height="25" as="geometry" />
        </mxCell>
        <mxCell id="ufxT-27bUbr_YRMTmESy-15" value="" style="rounded=0;whiteSpace=wrap;html=1;" vertex="1" parent="1">
          <mxGeometry x="432" y="856" width="47" height="25" as="geometry" />
        </mxCell>
        <mxCell id="ufxT-27bUbr_YRMTmESy-16" value="" style="rounded=0;whiteSpace=wrap;html=1;" vertex="1" parent="1">
          <mxGeometry x="479" y="856" width="47" height="25" as="geometry" />
        </mxCell>
        <mxCell id="ufxT-27bUbr_YRMTmESy-17" value="" style="rounded=0;whiteSpace=wrap;html=1;" vertex="1" parent="1">
          <mxGeometry x="150" y="881" width="47" height="25" as="geometry" />
        </mxCell>
        <mxCell id="ufxT-27bUbr_YRMTmESy-18" value="" style="rounded=0;whiteSpace=wrap;html=1;" vertex="1" parent="1">
          <mxGeometry x="197" y="881" width="47" height="25" as="geometry" />
        </mxCell>
        <mxCell id="ufxT-27bUbr_YRMTmESy-19" value="" style="rounded=0;whiteSpace=wrap;html=1;" vertex="1" parent="1">
          <mxGeometry x="244" y="881" width="47" height="25" as="geometry" />
        </mxCell>
        <mxCell id="ufxT-27bUbr_YRMTmESy-20" value="" style="rounded=0;whiteSpace=wrap;html=1;" vertex="1" parent="1">
          <mxGeometry x="291" y="881" width="47" height="25" as="geometry" />
        </mxCell>
        <mxCell id="ufxT-27bUbr_YRMTmESy-21" value="" style="rounded=0;whiteSpace=wrap;html=1;" vertex="1" parent="1">
          <mxGeometry x="338" y="881" width="47" height="25" as="geometry" />
        </mxCell>
        <mxCell id="ufxT-27bUbr_YRMTmESy-22" value="" style="rounded=0;whiteSpace=wrap;html=1;" vertex="1" parent="1">
          <mxGeometry x="385" y="881" width="47" height="25" as="geometry" />
        </mxCell>
        <mxCell id="ufxT-27bUbr_YRMTmESy-23" value="" style="rounded=0;whiteSpace=wrap;html=1;" vertex="1" parent="1">
          <mxGeometry x="432" y="881" width="47" height="25" as="geometry" />
        </mxCell>
        <mxCell id="ufxT-27bUbr_YRMTmESy-24" value="" style="rounded=0;whiteSpace=wrap;html=1;" vertex="1" parent="1">
          <mxGeometry x="479" y="881" width="47" height="25" as="geometry" />
        </mxCell>
        <mxCell id="ufxT-27bUbr_YRMTmESy-25" value="" style="rounded=0;whiteSpace=wrap;html=1;" vertex="1" parent="1">
          <mxGeometry x="150" y="906" width="47" height="25" as="geometry" />
        </mxCell>
        <mxCell id="ufxT-27bUbr_YRMTmESy-26" value="" style="rounded=0;whiteSpace=wrap;html=1;" vertex="1" parent="1">
          <mxGeometry x="197" y="906" width="47" height="25" as="geometry" />
        </mxCell>
        <mxCell id="ufxT-27bUbr_YRMTmESy-27" value="" style="rounded=0;whiteSpace=wrap;html=1;" vertex="1" parent="1">
          <mxGeometry x="244" y="906" width="47" height="25" as="geometry" />
        </mxCell>
        <mxCell id="ufxT-27bUbr_YRMTmESy-28" value="" style="rounded=0;whiteSpace=wrap;html=1;" vertex="1" parent="1">
          <mxGeometry x="291" y="906" width="47" height="25" as="geometry" />
        </mxCell>
        <mxCell id="ufxT-27bUbr_YRMTmESy-29" value="" style="rounded=0;whiteSpace=wrap;html=1;" vertex="1" parent="1">
          <mxGeometry x="338" y="906" width="47" height="25" as="geometry" />
        </mxCell>
        <mxCell id="ufxT-27bUbr_YRMTmESy-30" value="" style="rounded=0;whiteSpace=wrap;html=1;" vertex="1" parent="1">
          <mxGeometry x="385" y="906" width="47" height="25" as="geometry" />
        </mxCell>
        <mxCell id="ufxT-27bUbr_YRMTmESy-31" value="" style="rounded=0;whiteSpace=wrap;html=1;" vertex="1" parent="1">
          <mxGeometry x="432" y="906" width="47" height="25" as="geometry" />
        </mxCell>
        <mxCell id="ufxT-27bUbr_YRMTmESy-32" value="" style="rounded=0;whiteSpace=wrap;html=1;" vertex="1" parent="1">
          <mxGeometry x="479" y="906" width="47" height="25" as="geometry" />
        </mxCell>
        <mxCell id="ufxT-27bUbr_YRMTmESy-33" value="" style="rounded=0;whiteSpace=wrap;html=1;" vertex="1" parent="1">
          <mxGeometry x="150" y="931" width="47" height="25" as="geometry" />
        </mxCell>
        <mxCell id="ufxT-27bUbr_YRMTmESy-34" value="" style="rounded=0;whiteSpace=wrap;html=1;" vertex="1" parent="1">
          <mxGeometry x="197" y="931" width="47" height="25" as="geometry" />
        </mxCell>
        <mxCell id="ufxT-27bUbr_YRMTmESy-35" value="" style="rounded=0;whiteSpace=wrap;html=1;" vertex="1" parent="1">
          <mxGeometry x="244" y="931" width="47" height="25" as="geometry" />
        </mxCell>
        <mxCell id="ufxT-27bUbr_YRMTmESy-36" value="" style="rounded=0;whiteSpace=wrap;html=1;" vertex="1" parent="1">
          <mxGeometry x="291" y="931" width="47" height="25" as="geometry" />
        </mxCell>
        <mxCell id="ufxT-27bUbr_YRMTmESy-37" value="" style="rounded=0;whiteSpace=wrap;html=1;" vertex="1" parent="1">
          <mxGeometry x="338" y="931" width="47" height="25" as="geometry" />
        </mxCell>
        <mxCell id="ufxT-27bUbr_YRMTmESy-38" value="" style="rounded=0;whiteSpace=wrap;html=1;" vertex="1" parent="1">
          <mxGeometry x="385" y="931" width="47" height="25" as="geometry" />
        </mxCell>
        <mxCell id="ufxT-27bUbr_YRMTmESy-39" value="" style="rounded=0;whiteSpace=wrap;html=1;" vertex="1" parent="1">
          <mxGeometry x="432" y="931" width="47" height="25" as="geometry" />
        </mxCell>
        <mxCell id="ufxT-27bUbr_YRMTmESy-40" value="" style="rounded=0;whiteSpace=wrap;html=1;" vertex="1" parent="1">
          <mxGeometry x="479" y="931" width="47" height="25" as="geometry" />
        </mxCell>
        <mxCell id="ufxT-27bUbr_YRMTmESy-41" value="" style="rounded=0;whiteSpace=wrap;html=1;" vertex="1" parent="1">
          <mxGeometry x="150" y="956" width="47" height="25" as="geometry" />
        </mxCell>
        <mxCell id="ufxT-27bUbr_YRMTmESy-42" value="" style="rounded=0;whiteSpace=wrap;html=1;" vertex="1" parent="1">
          <mxGeometry x="197" y="956" width="47" height="25" as="geometry" />
        </mxCell>
        <mxCell id="ufxT-27bUbr_YRMTmESy-43" value="" style="rounded=0;whiteSpace=wrap;html=1;" vertex="1" parent="1">
          <mxGeometry x="244" y="956" width="47" height="25" as="geometry" />
        </mxCell>
        <mxCell id="ufxT-27bUbr_YRMTmESy-44" value="" style="rounded=0;whiteSpace=wrap;html=1;" vertex="1" parent="1">
          <mxGeometry x="291" y="956" width="47" height="25" as="geometry" />
        </mxCell>
        <mxCell id="ufxT-27bUbr_YRMTmESy-45" value="" style="rounded=0;whiteSpace=wrap;html=1;" vertex="1" parent="1">
          <mxGeometry x="338" y="956" width="47" height="25" as="geometry" />
        </mxCell>
        <mxCell id="ufxT-27bUbr_YRMTmESy-46" value="" style="rounded=0;whiteSpace=wrap;html=1;" vertex="1" parent="1">
          <mxGeometry x="385" y="956" width="47" height="25" as="geometry" />
        </mxCell>
        <mxCell id="ufxT-27bUbr_YRMTmESy-47" value="" style="rounded=0;whiteSpace=wrap;html=1;" vertex="1" parent="1">
          <mxGeometry x="432" y="956" width="47" height="25" as="geometry" />
        </mxCell>
        <mxCell id="ufxT-27bUbr_YRMTmESy-48" value="" style="rounded=0;whiteSpace=wrap;html=1;" vertex="1" parent="1">
          <mxGeometry x="479" y="956" width="47" height="25" as="geometry" />
        </mxCell>
        <mxCell id="ufxT-27bUbr_YRMTmESy-49" value="" style="rounded=0;whiteSpace=wrap;html=1;" vertex="1" parent="1">
          <mxGeometry x="150" y="981" width="47" height="25" as="geometry" />
        </mxCell>
        <mxCell id="ufxT-27bUbr_YRMTmESy-50" value="" style="rounded=0;whiteSpace=wrap;html=1;" vertex="1" parent="1">
          <mxGeometry x="197" y="981" width="47" height="25" as="geometry" />
        </mxCell>
        <mxCell id="ufxT-27bUbr_YRMTmESy-51" value="" style="rounded=0;whiteSpace=wrap;html=1;" vertex="1" parent="1">
          <mxGeometry x="244" y="981" width="47" height="25" as="geometry" />
        </mxCell>
        <mxCell id="ufxT-27bUbr_YRMTmESy-52" value="" style="rounded=0;whiteSpace=wrap;html=1;" vertex="1" parent="1">
          <mxGeometry x="291" y="981" width="47" height="25" as="geometry" />
        </mxCell>
        <mxCell id="ufxT-27bUbr_YRMTmESy-53" value="" style="rounded=0;whiteSpace=wrap;html=1;" vertex="1" parent="1">
          <mxGeometry x="338" y="981" width="47" height="25" as="geometry" />
        </mxCell>
        <mxCell id="ufxT-27bUbr_YRMTmESy-54" value="" style="rounded=0;whiteSpace=wrap;html=1;" vertex="1" parent="1">
          <mxGeometry x="385" y="981" width="47" height="25" as="geometry" />
        </mxCell>
        <mxCell id="ufxT-27bUbr_YRMTmESy-55" value="" style="rounded=0;whiteSpace=wrap;html=1;" vertex="1" parent="1">
          <mxGeometry x="432" y="981" width="47" height="25" as="geometry" />
        </mxCell>
        <mxCell id="ufxT-27bUbr_YRMTmESy-56" value="" style="rounded=0;whiteSpace=wrap;html=1;" vertex="1" parent="1">
          <mxGeometry x="479" y="981" width="47" height="25" as="geometry" />
        </mxCell>
        <mxCell id="ufxT-27bUbr_YRMTmESy-57" value="" style="rounded=0;whiteSpace=wrap;html=1;" vertex="1" parent="1">
          <mxGeometry x="150" y="1006" width="47" height="25" as="geometry" />
        </mxCell>
        <mxCell id="ufxT-27bUbr_YRMTmESy-58" value="" style="rounded=0;whiteSpace=wrap;html=1;" vertex="1" parent="1">
          <mxGeometry x="197" y="1006" width="47" height="25" as="geometry" />
        </mxCell>
        <mxCell id="ufxT-27bUbr_YRMTmESy-59" value="" style="rounded=0;whiteSpace=wrap;html=1;" vertex="1" parent="1">
          <mxGeometry x="244" y="1006" width="47" height="25" as="geometry" />
        </mxCell>
        <mxCell id="ufxT-27bUbr_YRMTmESy-60" value="" style="rounded=0;whiteSpace=wrap;html=1;" vertex="1" parent="1">
          <mxGeometry x="291" y="1006" width="47" height="25" as="geometry" />
        </mxCell>
        <mxCell id="ufxT-27bUbr_YRMTmESy-61" value="" style="rounded=0;whiteSpace=wrap;html=1;" vertex="1" parent="1">
          <mxGeometry x="338" y="1006" width="47" height="25" as="geometry" />
        </mxCell>
        <mxCell id="ufxT-27bUbr_YRMTmESy-62" value="" style="rounded=0;whiteSpace=wrap;html=1;" vertex="1" parent="1">
          <mxGeometry x="385" y="1006" width="47" height="25" as="geometry" />
        </mxCell>
        <mxCell id="ufxT-27bUbr_YRMTmESy-63" value="" style="rounded=0;whiteSpace=wrap;html=1;" vertex="1" parent="1">
          <mxGeometry x="432" y="1006" width="47" height="25" as="geometry" />
        </mxCell>
        <mxCell id="ufxT-27bUbr_YRMTmESy-64" value="" style="rounded=0;whiteSpace=wrap;html=1;" vertex="1" parent="1">
          <mxGeometry x="479" y="1006" width="47" height="25" as="geometry" />
        </mxCell>
        <mxCell id="ufxT-27bUbr_YRMTmESy-65" value="" style="shape=curlyBracket;whiteSpace=wrap;html=1;rounded=1;rotation=90;" vertex="1" parent="1">
          <mxGeometry x="327" y="633" width="20" height="364.5" as="geometry" />
        </mxCell>
        <mxCell id="ufxT-27bUbr_YRMTmESy-66" value="" style="shape=curlyBracket;whiteSpace=wrap;html=1;rounded=1;" vertex="1" parent="1">
          <mxGeometry x="123" y="837" width="20" height="188" as="geometry" />
        </mxCell>
        <mxCell id="ufxT-27bUbr_YRMTmESy-67" value="features" style="text;html=1;align=center;verticalAlign=middle;resizable=0;points=[];autosize=1;strokeColor=none;fillColor=none;" vertex="1" parent="1">
          <mxGeometry x="310.5" y="787" width="53" height="18" as="geometry" />
        </mxCell>
        <mxCell id="ufxT-27bUbr_YRMTmESy-68" value="time-series" style="text;html=1;align=center;verticalAlign=middle;resizable=0;points=[];autosize=1;strokeColor=none;fillColor=none;" vertex="1" parent="1">
          <mxGeometry x="54" y="922" width="69" height="18" as="geometry" />
        </mxCell>
        <mxCell id="ufxT-27bUbr_YRMTmESy-214" value="base-MLP" style="swimlane;rounded=1;" vertex="1" parent="1">
          <mxGeometry x="40" y="1184" width="271" height="284" as="geometry">
            <mxRectangle x="40" y="1184" width="83" height="23" as="alternateBounds" />
          </mxGeometry>
        </mxCell>
        <mxCell id="ufxT-27bUbr_YRMTmESy-208" value="" style="group" vertex="1" connectable="0" parent="ufxT-27bUbr_YRMTmESy-214">
          <mxGeometry x="-16" y="30" width="283" height="242" as="geometry" />
        </mxCell>
        <mxCell id="ufxT-27bUbr_YRMTmESy-69" value="FC" style="rounded=0;whiteSpace=wrap;html=1;" vertex="1" parent="ufxT-27bUbr_YRMTmESy-208">
          <mxGeometry x="78" y="60" width="95" height="29" as="geometry" />
        </mxCell>
        <mxCell id="ufxT-27bUbr_YRMTmESy-70" value="FC" style="rounded=0;whiteSpace=wrap;html=1;" vertex="1" parent="ufxT-27bUbr_YRMTmESy-208">
          <mxGeometry x="78" y="151" width="95" height="29" as="geometry" />
        </mxCell>
        <mxCell id="ufxT-27bUbr_YRMTmESy-78" value="" style="edgeStyle=orthogonalEdgeStyle;rounded=0;orthogonalLoop=1;jettySize=auto;html=1;" edge="1" parent="ufxT-27bUbr_YRMTmESy-208" source="ufxT-27bUbr_YRMTmESy-71" target="ufxT-27bUbr_YRMTmESy-70">
          <mxGeometry relative="1" as="geometry" />
        </mxCell>
        <mxCell id="ufxT-27bUbr_YRMTmESy-71" value="..." style="text;html=1;strokeColor=none;fillColor=none;align=center;verticalAlign=middle;whiteSpace=wrap;rounded=0;" vertex="1" parent="ufxT-27bUbr_YRMTmESy-208">
          <mxGeometry x="95.5" y="96" width="60" height="30" as="geometry" />
        </mxCell>
        <mxCell id="ufxT-27bUbr_YRMTmESy-72" value="" style="shape=curlyBracket;whiteSpace=wrap;html=1;rounded=1;" vertex="1" parent="ufxT-27bUbr_YRMTmESy-208">
          <mxGeometry x="52" y="60" width="20" height="120" as="geometry" />
        </mxCell>
        <mxCell id="ufxT-27bUbr_YRMTmESy-73" value="Nx" style="text;html=1;strokeColor=none;fillColor=none;align=center;verticalAlign=middle;whiteSpace=wrap;rounded=0;" vertex="1" parent="ufxT-27bUbr_YRMTmESy-208">
          <mxGeometry y="105" width="60" height="30" as="geometry" />
        </mxCell>
        <mxCell id="ufxT-27bUbr_YRMTmESy-76" value="" style="edgeStyle=orthogonalEdgeStyle;rounded=0;orthogonalLoop=1;jettySize=auto;html=1;" edge="1" parent="ufxT-27bUbr_YRMTmESy-208" source="ufxT-27bUbr_YRMTmESy-74">
          <mxGeometry relative="1" as="geometry">
            <mxPoint x="126" y="59" as="targetPoint" />
          </mxGeometry>
        </mxCell>
        <mxCell id="ufxT-27bUbr_YRMTmESy-74" value="INPUT" style="rounded=1;whiteSpace=wrap;html=1;" vertex="1" parent="ufxT-27bUbr_YRMTmESy-208">
          <mxGeometry x="78" y="1" width="95" height="29" as="geometry" />
        </mxCell>
        <mxCell id="ufxT-27bUbr_YRMTmESy-79" value="OUTPUT" style="rounded=1;whiteSpace=wrap;html=1;" vertex="1" parent="ufxT-27bUbr_YRMTmESy-208">
          <mxGeometry x="78" y="212" width="95" height="29" as="geometry" />
        </mxCell>
        <mxCell id="ufxT-27bUbr_YRMTmESy-80" value="" style="edgeStyle=orthogonalEdgeStyle;rounded=0;orthogonalLoop=1;jettySize=auto;html=1;" edge="1" parent="ufxT-27bUbr_YRMTmESy-208" source="ufxT-27bUbr_YRMTmESy-70" target="ufxT-27bUbr_YRMTmESy-79">
          <mxGeometry relative="1" as="geometry" />
        </mxCell>
        <mxCell id="ufxT-27bUbr_YRMTmESy-81" value="(N, TW, FEA)" style="text;html=1;strokeColor=none;fillColor=none;align=center;verticalAlign=middle;whiteSpace=wrap;rounded=0;" vertex="1" parent="ufxT-27bUbr_YRMTmESy-208">
          <mxGeometry x="198" width="85" height="30" as="geometry" />
        </mxCell>
        <mxCell id="ufxT-27bUbr_YRMTmESy-82" value="(N, PW, LAB)" style="text;html=1;strokeColor=none;fillColor=none;align=center;verticalAlign=middle;whiteSpace=wrap;rounded=0;" vertex="1" parent="ufxT-27bUbr_YRMTmESy-208">
          <mxGeometry x="198" y="212" width="85" height="30" as="geometry" />
        </mxCell>
        <mxCell id="ufxT-27bUbr_YRMTmESy-217" value="base-RESNET" style="swimlane;rounded=1;" vertex="1" parent="1">
          <mxGeometry x="38.5" y="1487" width="458" height="327" as="geometry">
            <mxRectangle x="51" y="1565" width="107" height="23" as="alternateBounds" />
          </mxGeometry>
        </mxCell>
        <mxCell id="ufxT-27bUbr_YRMTmESy-211" value="" style="group" vertex="1" connectable="0" parent="ufxT-27bUbr_YRMTmESy-217">
          <mxGeometry y="28" width="441.25" height="287.54212188720703" as="geometry" />
        </mxCell>
        <mxCell id="ufxT-27bUbr_YRMTmESy-138" value="RESNET-BLOCK" style="rounded=0;whiteSpace=wrap;html=1;fillColor=#dae8fc;strokeColor=#6c8ebf;" vertex="1" parent="ufxT-27bUbr_YRMTmESy-211">
          <mxGeometry x="95" y="62" width="95" height="29" as="geometry" />
        </mxCell>
        <mxCell id="ufxT-27bUbr_YRMTmESy-140" value="RESNET-BLOCK" style="rounded=0;whiteSpace=wrap;html=1;fillColor=#dae8fc;strokeColor=#6c8ebf;" vertex="1" parent="ufxT-27bUbr_YRMTmESy-211">
          <mxGeometry x="95" y="153" width="95" height="29" as="geometry" />
        </mxCell>
        <mxCell id="ufxT-27bUbr_YRMTmESy-141" value="" style="edgeStyle=orthogonalEdgeStyle;rounded=0;orthogonalLoop=1;jettySize=auto;html=1;" edge="1" parent="ufxT-27bUbr_YRMTmESy-211" source="ufxT-27bUbr_YRMTmESy-142" target="ufxT-27bUbr_YRMTmESy-140">
          <mxGeometry relative="1" as="geometry" />
        </mxCell>
        <mxCell id="ufxT-27bUbr_YRMTmESy-142" value="..." style="text;html=1;strokeColor=none;fillColor=none;align=center;verticalAlign=middle;whiteSpace=wrap;rounded=0;" vertex="1" parent="ufxT-27bUbr_YRMTmESy-211">
          <mxGeometry x="112.5" y="98" width="60" height="30" as="geometry" />
        </mxCell>
        <mxCell id="ufxT-27bUbr_YRMTmESy-143" value="" style="shape=curlyBracket;whiteSpace=wrap;html=1;rounded=1;" vertex="1" parent="ufxT-27bUbr_YRMTmESy-211">
          <mxGeometry x="69" y="62" width="20" height="120" as="geometry" />
        </mxCell>
        <mxCell id="ufxT-27bUbr_YRMTmESy-144" value="Nx" style="text;html=1;strokeColor=none;fillColor=none;align=center;verticalAlign=middle;whiteSpace=wrap;rounded=0;" vertex="1" parent="ufxT-27bUbr_YRMTmESy-211">
          <mxGeometry x="17" y="107" width="60" height="30" as="geometry" />
        </mxCell>
        <mxCell id="ufxT-27bUbr_YRMTmESy-145" value="" style="edgeStyle=orthogonalEdgeStyle;rounded=0;orthogonalLoop=1;jettySize=auto;html=1;" edge="1" parent="ufxT-27bUbr_YRMTmESy-211" source="ufxT-27bUbr_YRMTmESy-146">
          <mxGeometry relative="1" as="geometry">
            <mxPoint x="143" y="61" as="targetPoint" />
          </mxGeometry>
        </mxCell>
        <mxCell id="ufxT-27bUbr_YRMTmESy-146" value="INPUT" style="rounded=1;whiteSpace=wrap;html=1;" vertex="1" parent="ufxT-27bUbr_YRMTmESy-211">
          <mxGeometry x="95" y="3" width="95" height="29" as="geometry" />
        </mxCell>
        <mxCell id="ufxT-27bUbr_YRMTmESy-147" value="OUTPUT" style="rounded=1;whiteSpace=wrap;html=1;" vertex="1" parent="ufxT-27bUbr_YRMTmESy-211">
          <mxGeometry x="95" y="249" width="95" height="29" as="geometry" />
        </mxCell>
        <mxCell id="ufxT-27bUbr_YRMTmESy-148" value="(N, TW, FEA)" style="text;html=1;strokeColor=none;fillColor=none;align=center;verticalAlign=middle;whiteSpace=wrap;rounded=0;" vertex="1" parent="ufxT-27bUbr_YRMTmESy-211">
          <mxGeometry x="7" y="2" width="85" height="30" as="geometry" />
        </mxCell>
        <mxCell id="ufxT-27bUbr_YRMTmESy-149" value="(N, PW, LAB)" style="text;html=1;strokeColor=none;fillColor=none;align=center;verticalAlign=middle;whiteSpace=wrap;rounded=0;" vertex="1" parent="ufxT-27bUbr_YRMTmESy-211">
          <mxGeometry y="249" width="85" height="30" as="geometry" />
        </mxCell>
        <mxCell id="ufxT-27bUbr_YRMTmESy-150" value="" style="edgeStyle=orthogonalEdgeStyle;rounded=0;orthogonalLoop=1;jettySize=auto;html=1;" edge="1" parent="ufxT-27bUbr_YRMTmESy-211" source="ufxT-27bUbr_YRMTmESy-151" target="ufxT-27bUbr_YRMTmESy-147">
          <mxGeometry relative="1" as="geometry" />
        </mxCell>
        <mxCell id="ufxT-27bUbr_YRMTmESy-151" value="FC" style="rounded=0;whiteSpace=wrap;html=1;" vertex="1" parent="ufxT-27bUbr_YRMTmESy-211">
          <mxGeometry x="95" y="203" width="95" height="29" as="geometry" />
        </mxCell>
        <mxCell id="ufxT-27bUbr_YRMTmESy-139" value="" style="edgeStyle=orthogonalEdgeStyle;rounded=0;orthogonalLoop=1;jettySize=auto;html=1;" edge="1" parent="ufxT-27bUbr_YRMTmESy-211" source="ufxT-27bUbr_YRMTmESy-140" target="ufxT-27bUbr_YRMTmESy-151">
          <mxGeometry relative="1" as="geometry" />
        </mxCell>
        <mxCell id="ufxT-27bUbr_YRMTmESy-152" value="" style="rounded=1;whiteSpace=wrap;html=1;fillColor=#dae8fc;strokeColor=#6c8ebf;" vertex="1" parent="ufxT-27bUbr_YRMTmESy-211">
          <mxGeometry x="246.25" y="21" width="195" height="245" as="geometry" />
        </mxCell>
        <mxCell id="ufxT-27bUbr_YRMTmESy-153" style="edgeStyle=orthogonalEdgeStyle;rounded=0;orthogonalLoop=1;jettySize=auto;html=1;entryX=0.5;entryY=0;entryDx=0;entryDy=0;" edge="1" parent="ufxT-27bUbr_YRMTmESy-211" target="ufxT-27bUbr_YRMTmESy-155">
          <mxGeometry relative="1" as="geometry">
            <mxPoint x="344.25" y="4" as="sourcePoint" />
            <Array as="points">
              <mxPoint x="344.25" y="22" />
            </Array>
          </mxGeometry>
        </mxCell>
        <mxCell id="ufxT-27bUbr_YRMTmESy-155" value="CONV1D" style="rounded=0;whiteSpace=wrap;html=1;" vertex="1" parent="ufxT-27bUbr_YRMTmESy-211">
          <mxGeometry x="296.25" y="50" width="95" height="29" as="geometry" />
        </mxCell>
        <mxCell id="ufxT-27bUbr_YRMTmESy-157" value="BN &amp;amp; RELU" style="rounded=0;whiteSpace=wrap;html=1;" vertex="1" parent="ufxT-27bUbr_YRMTmESy-211">
          <mxGeometry x="296.25" y="99" width="95" height="30" as="geometry" />
        </mxCell>
        <mxCell id="ufxT-27bUbr_YRMTmESy-154" value="" style="edgeStyle=orthogonalEdgeStyle;rounded=0;orthogonalLoop=1;jettySize=auto;html=1;" edge="1" parent="ufxT-27bUbr_YRMTmESy-211" source="ufxT-27bUbr_YRMTmESy-155" target="ufxT-27bUbr_YRMTmESy-157">
          <mxGeometry relative="1" as="geometry" />
        </mxCell>
        <mxCell id="ufxT-27bUbr_YRMTmESy-159" value="CONV1D" style="rounded=0;whiteSpace=wrap;html=1;" vertex="1" parent="ufxT-27bUbr_YRMTmESy-211">
          <mxGeometry x="296.25" y="150" width="95" height="29" as="geometry" />
        </mxCell>
        <mxCell id="ufxT-27bUbr_YRMTmESy-156" value="" style="edgeStyle=orthogonalEdgeStyle;rounded=0;orthogonalLoop=1;jettySize=auto;html=1;" edge="1" parent="ufxT-27bUbr_YRMTmESy-211" source="ufxT-27bUbr_YRMTmESy-157" target="ufxT-27bUbr_YRMTmESy-159">
          <mxGeometry relative="1" as="geometry" />
        </mxCell>
        <mxCell id="ufxT-27bUbr_YRMTmESy-161" value="BN &amp;amp; RELU" style="rounded=0;whiteSpace=wrap;html=1;" vertex="1" parent="ufxT-27bUbr_YRMTmESy-211">
          <mxGeometry x="296.25" y="203" width="95" height="20" as="geometry" />
        </mxCell>
        <mxCell id="ufxT-27bUbr_YRMTmESy-158" value="" style="edgeStyle=orthogonalEdgeStyle;rounded=0;orthogonalLoop=1;jettySize=auto;html=1;" edge="1" parent="ufxT-27bUbr_YRMTmESy-211" source="ufxT-27bUbr_YRMTmESy-159" target="ufxT-27bUbr_YRMTmESy-161">
          <mxGeometry relative="1" as="geometry" />
        </mxCell>
        <mxCell id="ufxT-27bUbr_YRMTmESy-162" style="edgeStyle=orthogonalEdgeStyle;rounded=0;orthogonalLoop=1;jettySize=auto;html=1;exitX=0.5;exitY=1;exitDx=0;exitDy=0;exitPerimeter=0;" edge="1" parent="ufxT-27bUbr_YRMTmESy-211" source="ufxT-27bUbr_YRMTmESy-163">
          <mxGeometry relative="1" as="geometry">
            <mxPoint x="344.25" y="287.54212188720703" as="targetPoint" />
          </mxGeometry>
        </mxCell>
        <mxCell id="ufxT-27bUbr_YRMTmESy-163" value="" style="verticalLabelPosition=bottom;verticalAlign=top;html=1;shape=mxgraph.flowchart.summing_function;rounded=1;" vertex="1" parent="ufxT-27bUbr_YRMTmESy-211">
          <mxGeometry x="334" y="245.5" width="19.5" height="16" as="geometry" />
        </mxCell>
        <mxCell id="ufxT-27bUbr_YRMTmESy-160" value="" style="edgeStyle=orthogonalEdgeStyle;rounded=0;orthogonalLoop=1;jettySize=auto;html=1;" edge="1" parent="ufxT-27bUbr_YRMTmESy-211" source="ufxT-27bUbr_YRMTmESy-161" target="ufxT-27bUbr_YRMTmESy-163">
          <mxGeometry relative="1" as="geometry" />
        </mxCell>
        <mxCell id="ufxT-27bUbr_YRMTmESy-164" style="edgeStyle=orthogonalEdgeStyle;rounded=0;orthogonalLoop=1;jettySize=auto;html=1;entryX=0;entryY=0.5;entryDx=0;entryDy=0;entryPerimeter=0;" edge="1" parent="ufxT-27bUbr_YRMTmESy-211" target="ufxT-27bUbr_YRMTmESy-163">
          <mxGeometry relative="1" as="geometry">
            <mxPoint x="344.25" y="33" as="sourcePoint" />
            <mxPoint x="353.75" y="60" as="targetPoint" />
            <Array as="points">
              <mxPoint x="275.25" y="33" />
              <mxPoint x="275.25" y="254" />
            </Array>
          </mxGeometry>
        </mxCell>
        <mxCell id="ufxT-27bUbr_YRMTmESy-165" value="RESNET-BLOCK" style="text;html=1;strokeColor=none;fillColor=none;align=center;verticalAlign=middle;whiteSpace=wrap;rounded=0;" vertex="1" parent="ufxT-27bUbr_YRMTmESy-211">
          <mxGeometry x="236" width="98" height="30" as="geometry" />
        </mxCell>
        <mxCell id="ufxT-27bUbr_YRMTmESy-216" value="base-RNN" style="swimlane;rounded=1;" vertex="1" parent="1">
          <mxGeometry x="577" y="1187" width="219.75" height="324" as="geometry">
            <mxRectangle x="420.25" y="1301" width="84" height="23" as="alternateBounds" />
          </mxGeometry>
        </mxCell>
        <mxCell id="ufxT-27bUbr_YRMTmESy-219" value="" style="group" vertex="1" connectable="0" parent="ufxT-27bUbr_YRMTmESy-216">
          <mxGeometry x="8.75" y="29" width="211" height="357" as="geometry" />
        </mxCell>
        <mxCell id="ufxT-27bUbr_YRMTmESy-124" value="LSTM/RNN/GRU" style="rounded=0;whiteSpace=wrap;html=1;fillColor=#d5e8d4;strokeColor=#82b366;" vertex="1" parent="ufxT-27bUbr_YRMTmESy-219">
          <mxGeometry x="95" y="60" width="95" height="29" as="geometry" />
        </mxCell>
        <mxCell id="ufxT-27bUbr_YRMTmESy-126" value="LSTM/RNN/GRU" style="rounded=0;whiteSpace=wrap;html=1;fillColor=#d5e8d4;strokeColor=#82b366;" vertex="1" parent="ufxT-27bUbr_YRMTmESy-219">
          <mxGeometry x="95" y="151" width="95" height="29" as="geometry" />
        </mxCell>
        <mxCell id="ufxT-27bUbr_YRMTmESy-127" value="" style="edgeStyle=orthogonalEdgeStyle;rounded=0;orthogonalLoop=1;jettySize=auto;html=1;" edge="1" parent="ufxT-27bUbr_YRMTmESy-219" source="ufxT-27bUbr_YRMTmESy-128" target="ufxT-27bUbr_YRMTmESy-126">
          <mxGeometry as="geometry" />
        </mxCell>
        <mxCell id="ufxT-27bUbr_YRMTmESy-128" value="..." style="text;html=1;strokeColor=none;fillColor=none;align=center;verticalAlign=middle;whiteSpace=wrap;rounded=0;" vertex="1" parent="ufxT-27bUbr_YRMTmESy-219">
          <mxGeometry x="112.5" y="96" width="60" height="30" as="geometry" />
        </mxCell>
        <mxCell id="ufxT-27bUbr_YRMTmESy-129" value="" style="shape=curlyBracket;whiteSpace=wrap;html=1;rounded=1;" vertex="1" parent="ufxT-27bUbr_YRMTmESy-219">
          <mxGeometry x="69" y="60" width="20" height="120" as="geometry" />
        </mxCell>
        <mxCell id="ufxT-27bUbr_YRMTmESy-130" value="Nx" style="text;html=1;strokeColor=none;fillColor=none;align=center;verticalAlign=middle;whiteSpace=wrap;rounded=0;" vertex="1" parent="ufxT-27bUbr_YRMTmESy-219">
          <mxGeometry x="17" y="105" width="60" height="30" as="geometry" />
        </mxCell>
        <mxCell id="ufxT-27bUbr_YRMTmESy-131" value="" style="edgeStyle=orthogonalEdgeStyle;rounded=0;orthogonalLoop=1;jettySize=auto;html=1;" edge="1" parent="ufxT-27bUbr_YRMTmESy-219" source="ufxT-27bUbr_YRMTmESy-132">
          <mxGeometry as="geometry">
            <mxPoint x="143" y="59" as="targetPoint" />
          </mxGeometry>
        </mxCell>
        <mxCell id="ufxT-27bUbr_YRMTmESy-132" value="INPUT" style="rounded=1;whiteSpace=wrap;html=1;" vertex="1" parent="ufxT-27bUbr_YRMTmESy-219">
          <mxGeometry x="95" y="1" width="95" height="29" as="geometry" />
        </mxCell>
        <mxCell id="ufxT-27bUbr_YRMTmESy-133" value="OUTPUT" style="rounded=1;whiteSpace=wrap;html=1;" vertex="1" parent="ufxT-27bUbr_YRMTmESy-219">
          <mxGeometry x="95" y="247" width="95" height="29" as="geometry" />
        </mxCell>
        <mxCell id="ufxT-27bUbr_YRMTmESy-134" value="(N, TW, FEA)" style="text;html=1;strokeColor=none;fillColor=none;align=center;verticalAlign=middle;whiteSpace=wrap;rounded=0;" vertex="1" parent="ufxT-27bUbr_YRMTmESy-219">
          <mxGeometry x="7" width="85" height="30" as="geometry" />
        </mxCell>
        <mxCell id="ufxT-27bUbr_YRMTmESy-135" value="(N, PW, LAB)" style="text;html=1;strokeColor=none;fillColor=none;align=center;verticalAlign=middle;whiteSpace=wrap;rounded=0;" vertex="1" parent="ufxT-27bUbr_YRMTmESy-219">
          <mxGeometry y="247" width="85" height="30" as="geometry" />
        </mxCell>
        <mxCell id="ufxT-27bUbr_YRMTmESy-136" value="" style="edgeStyle=orthogonalEdgeStyle;rounded=0;orthogonalLoop=1;jettySize=auto;html=1;" edge="1" parent="ufxT-27bUbr_YRMTmESy-219" source="ufxT-27bUbr_YRMTmESy-137" target="ufxT-27bUbr_YRMTmESy-133">
          <mxGeometry as="geometry" />
        </mxCell>
        <mxCell id="ufxT-27bUbr_YRMTmESy-137" value="FC" style="rounded=0;whiteSpace=wrap;html=1;" vertex="1" parent="ufxT-27bUbr_YRMTmESy-219">
          <mxGeometry x="95" y="201" width="95" height="29" as="geometry" />
        </mxCell>
        <mxCell id="ufxT-27bUbr_YRMTmESy-125" value="" style="edgeStyle=orthogonalEdgeStyle;rounded=0;orthogonalLoop=1;jettySize=auto;html=1;" edge="1" parent="ufxT-27bUbr_YRMTmESy-219" source="ufxT-27bUbr_YRMTmESy-126" target="ufxT-27bUbr_YRMTmESy-137">
          <mxGeometry as="geometry" />
        </mxCell>
        <mxCell id="ufxT-27bUbr_YRMTmESy-220" value="base-CONVOLUTION" style="swimlane;rounded=1;" vertex="1" parent="1">
          <mxGeometry x="38.5" y="1832" width="457.5" height="460" as="geometry">
            <mxRectangle x="51" y="1917" width="147" height="23" as="alternateBounds" />
          </mxGeometry>
        </mxCell>
        <mxCell id="ufxT-27bUbr_YRMTmESy-212" value="" style="group" vertex="1" connectable="0" parent="ufxT-27bUbr_YRMTmESy-220">
          <mxGeometry x="6" y="30" width="469.75" height="418" as="geometry" />
        </mxCell>
        <mxCell id="ufxT-27bUbr_YRMTmESy-166" value="INPUT" style="rounded=1;whiteSpace=wrap;html=1;" vertex="1" parent="ufxT-27bUbr_YRMTmESy-212">
          <mxGeometry x="114.5" width="95" height="29" as="geometry" />
        </mxCell>
        <mxCell id="ufxT-27bUbr_YRMTmESy-167" value="FC" style="rounded=0;whiteSpace=wrap;html=1;" vertex="1" parent="ufxT-27bUbr_YRMTmESy-212">
          <mxGeometry x="115.5" y="52" width="95" height="29" as="geometry" />
        </mxCell>
        <mxCell id="ufxT-27bUbr_YRMTmESy-174" style="edgeStyle=orthogonalEdgeStyle;rounded=0;orthogonalLoop=1;jettySize=auto;html=1;exitX=0.5;exitY=1;exitDx=0;exitDy=0;entryX=0.5;entryY=0;entryDx=0;entryDy=0;" edge="1" parent="ufxT-27bUbr_YRMTmESy-212" source="ufxT-27bUbr_YRMTmESy-166" target="ufxT-27bUbr_YRMTmESy-167">
          <mxGeometry relative="1" as="geometry" />
        </mxCell>
        <mxCell id="ufxT-27bUbr_YRMTmESy-168" value="FC" style="rounded=0;whiteSpace=wrap;html=1;" vertex="1" parent="ufxT-27bUbr_YRMTmESy-212">
          <mxGeometry x="114.5" y="141" width="95" height="29" as="geometry" />
        </mxCell>
        <mxCell id="ufxT-27bUbr_YRMTmESy-177" style="edgeStyle=orthogonalEdgeStyle;rounded=0;orthogonalLoop=1;jettySize=auto;html=1;exitX=0.5;exitY=1;exitDx=0;exitDy=0;entryX=0.5;entryY=0;entryDx=0;entryDy=0;" edge="1" parent="ufxT-27bUbr_YRMTmESy-212" source="ufxT-27bUbr_YRMTmESy-169" target="ufxT-27bUbr_YRMTmESy-168">
          <mxGeometry relative="1" as="geometry" />
        </mxCell>
        <mxCell id="ufxT-27bUbr_YRMTmESy-169" value="..." style="text;html=1;strokeColor=none;fillColor=none;align=center;verticalAlign=middle;whiteSpace=wrap;rounded=0;" vertex="1" parent="ufxT-27bUbr_YRMTmESy-212">
          <mxGeometry x="131" y="81" width="60" height="30" as="geometry" />
        </mxCell>
        <mxCell id="ufxT-27bUbr_YRMTmESy-170" value="" style="shape=curlyBracket;whiteSpace=wrap;html=1;rounded=1;" vertex="1" parent="ufxT-27bUbr_YRMTmESy-212">
          <mxGeometry x="87.5" y="52" width="20" height="118" as="geometry" />
        </mxCell>
        <mxCell id="ufxT-27bUbr_YRMTmESy-171" value="Nx" style="text;html=1;strokeColor=none;fillColor=none;align=center;verticalAlign=middle;whiteSpace=wrap;rounded=0;" vertex="1" parent="ufxT-27bUbr_YRMTmESy-212">
          <mxGeometry x="36" y="98" width="60" height="30" as="geometry" />
        </mxCell>
        <mxCell id="ufxT-27bUbr_YRMTmESy-178" value="CONV-BLOCK" style="rounded=0;whiteSpace=wrap;html=1;" vertex="1" parent="ufxT-27bUbr_YRMTmESy-212">
          <mxGeometry x="114.5" y="196" width="95" height="29" as="geometry" />
        </mxCell>
        <mxCell id="ufxT-27bUbr_YRMTmESy-181" style="edgeStyle=orthogonalEdgeStyle;rounded=0;orthogonalLoop=1;jettySize=auto;html=1;exitX=0.5;exitY=1;exitDx=0;exitDy=0;entryX=0.5;entryY=0;entryDx=0;entryDy=0;" edge="1" parent="ufxT-27bUbr_YRMTmESy-212" source="ufxT-27bUbr_YRMTmESy-168" target="ufxT-27bUbr_YRMTmESy-178">
          <mxGeometry relative="1" as="geometry" />
        </mxCell>
        <mxCell id="ufxT-27bUbr_YRMTmESy-179" value="CONV-BLOCK" style="rounded=0;whiteSpace=wrap;html=1;" vertex="1" parent="ufxT-27bUbr_YRMTmESy-212">
          <mxGeometry x="114.5" y="284" width="95" height="30" as="geometry" />
        </mxCell>
        <mxCell id="ufxT-27bUbr_YRMTmESy-183" value="" style="shape=curlyBracket;whiteSpace=wrap;html=1;rounded=1;" vertex="1" parent="ufxT-27bUbr_YRMTmESy-212">
          <mxGeometry x="89.5" y="196" width="20" height="119" as="geometry" />
        </mxCell>
        <mxCell id="ufxT-27bUbr_YRMTmESy-184" value="Nx" style="text;html=1;strokeColor=none;fillColor=none;align=center;verticalAlign=middle;whiteSpace=wrap;rounded=0;" vertex="1" parent="ufxT-27bUbr_YRMTmESy-212">
          <mxGeometry x="40" y="240.5" width="60" height="30" as="geometry" />
        </mxCell>
        <mxCell id="ufxT-27bUbr_YRMTmESy-185" value="FC" style="rounded=0;whiteSpace=wrap;html=1;" vertex="1" parent="ufxT-27bUbr_YRMTmESy-212">
          <mxGeometry x="114.5" y="340" width="95" height="29" as="geometry" />
        </mxCell>
        <mxCell id="ufxT-27bUbr_YRMTmESy-186" value="" style="edgeStyle=orthogonalEdgeStyle;rounded=0;orthogonalLoop=1;jettySize=auto;html=1;" edge="1" parent="ufxT-27bUbr_YRMTmESy-212" source="ufxT-27bUbr_YRMTmESy-179" target="ufxT-27bUbr_YRMTmESy-185">
          <mxGeometry relative="1" as="geometry" />
        </mxCell>
        <mxCell id="ufxT-27bUbr_YRMTmESy-187" value="OUTPUT" style="rounded=1;whiteSpace=wrap;html=1;" vertex="1" parent="ufxT-27bUbr_YRMTmESy-212">
          <mxGeometry x="114.5" y="389" width="95" height="29" as="geometry" />
        </mxCell>
        <mxCell id="ufxT-27bUbr_YRMTmESy-188" value="" style="edgeStyle=orthogonalEdgeStyle;rounded=0;orthogonalLoop=1;jettySize=auto;html=1;" edge="1" parent="ufxT-27bUbr_YRMTmESy-212" source="ufxT-27bUbr_YRMTmESy-185" target="ufxT-27bUbr_YRMTmESy-187">
          <mxGeometry relative="1" as="geometry" />
        </mxCell>
        <mxCell id="ufxT-27bUbr_YRMTmESy-189" value="" style="rounded=1;whiteSpace=wrap;html=1;fillColor=#dae8fc;strokeColor=#6c8ebf;" vertex="1" parent="ufxT-27bUbr_YRMTmESy-212">
          <mxGeometry x="237.75" y="62" width="195" height="135" as="geometry" />
        </mxCell>
        <mxCell id="ufxT-27bUbr_YRMTmESy-190" style="edgeStyle=orthogonalEdgeStyle;rounded=0;orthogonalLoop=1;jettySize=auto;html=1;entryX=0.5;entryY=0;entryDx=0;entryDy=0;" edge="1" parent="ufxT-27bUbr_YRMTmESy-212" target="ufxT-27bUbr_YRMTmESy-192">
          <mxGeometry relative="1" as="geometry">
            <mxPoint x="335.75" y="45" as="sourcePoint" />
            <Array as="points">
              <mxPoint x="335.75" y="63" />
            </Array>
          </mxGeometry>
        </mxCell>
        <mxCell id="ufxT-27bUbr_YRMTmESy-192" value="CONV1D" style="rounded=0;whiteSpace=wrap;html=1;" vertex="1" parent="ufxT-27bUbr_YRMTmESy-212">
          <mxGeometry x="287.75" y="91" width="95" height="29" as="geometry" />
        </mxCell>
        <mxCell id="ufxT-27bUbr_YRMTmESy-193" value="" style="edgeStyle=orthogonalEdgeStyle;rounded=0;orthogonalLoop=1;jettySize=auto;html=1;" edge="1" parent="ufxT-27bUbr_YRMTmESy-212" source="ufxT-27bUbr_YRMTmESy-194">
          <mxGeometry relative="1" as="geometry">
            <mxPoint x="335.5" y="217" as="targetPoint" />
          </mxGeometry>
        </mxCell>
        <mxCell id="ufxT-27bUbr_YRMTmESy-194" value="BN &amp;amp; RELU" style="rounded=0;whiteSpace=wrap;html=1;" vertex="1" parent="ufxT-27bUbr_YRMTmESy-212">
          <mxGeometry x="287.75" y="140" width="95" height="30" as="geometry" />
        </mxCell>
        <mxCell id="ufxT-27bUbr_YRMTmESy-191" value="" style="edgeStyle=orthogonalEdgeStyle;rounded=0;orthogonalLoop=1;jettySize=auto;html=1;" edge="1" parent="ufxT-27bUbr_YRMTmESy-212" source="ufxT-27bUbr_YRMTmESy-192" target="ufxT-27bUbr_YRMTmESy-194">
          <mxGeometry relative="1" as="geometry" />
        </mxCell>
        <mxCell id="ufxT-27bUbr_YRMTmESy-202" value="CONV-BLOCK" style="text;html=1;strokeColor=none;fillColor=none;align=center;verticalAlign=middle;whiteSpace=wrap;rounded=0;" vertex="1" parent="ufxT-27bUbr_YRMTmESy-212">
          <mxGeometry x="227.5" y="41" width="98" height="30" as="geometry" />
        </mxCell>
        <mxCell id="ufxT-27bUbr_YRMTmESy-205" style="edgeStyle=orthogonalEdgeStyle;rounded=0;orthogonalLoop=1;jettySize=auto;html=1;exitX=0.5;exitY=1;exitDx=0;exitDy=0;entryX=0.5;entryY=0;entryDx=0;entryDy=0;" edge="1" parent="ufxT-27bUbr_YRMTmESy-212" source="ufxT-27bUbr_YRMTmESy-203" target="ufxT-27bUbr_YRMTmESy-179">
          <mxGeometry relative="1" as="geometry" />
        </mxCell>
        <mxCell id="ufxT-27bUbr_YRMTmESy-203" value="..." style="text;html=1;strokeColor=none;fillColor=none;align=center;verticalAlign=middle;whiteSpace=wrap;rounded=0;" vertex="1" parent="ufxT-27bUbr_YRMTmESy-212">
          <mxGeometry x="131" y="221" width="60" height="30" as="geometry" />
        </mxCell>
        <mxCell id="ufxT-27bUbr_YRMTmESy-206" value="(N, TW, FEA)" style="text;html=1;strokeColor=none;fillColor=none;align=center;verticalAlign=middle;whiteSpace=wrap;rounded=0;" vertex="1" parent="ufxT-27bUbr_YRMTmESy-212">
          <mxGeometry width="85" height="30" as="geometry" />
        </mxCell>
        <mxCell id="ufxT-27bUbr_YRMTmESy-207" value="(N, PW, LAB)" style="text;html=1;strokeColor=none;fillColor=none;align=center;verticalAlign=middle;whiteSpace=wrap;rounded=0;" vertex="1" parent="ufxT-27bUbr_YRMTmESy-212">
          <mxGeometry x="5.5" y="388" width="85" height="30" as="geometry" />
        </mxCell>
      </root>
    </mxGraphModel>
  </diagram>
</mxfile>
